<svg fill="none" height="75" viewBox="0 0 200 75" width="200" xmlns="http://www.w3.org/2000/svg"><g fill="#408f95"><path d="m5.91458 45.0729-.06289.0622c.06289-.0622.06289-.0622.06289-.1243v-.3108c.69171-3.6669 2.01227-7.2717 3.33282-10.8144 1.3834-3.7291 2.704-7.396 4.4647-10.9387 1.635-3.3562 3.5215-6.6502 5.6595-9.6956 1.8865-2.7969 4.1503-5.8423 7.043-7.70685.8804-.24861 1.7607-1.18088 2.8926-.99443 1.1319.18646 1.1319 1.36734.8804 2.48607.3144-.87012.5031-1.80239-.2515-2.42391-1.0062-.74582-2.9556.43506-3.773.99442-.3773.12431-.7546.37291-1.0691.62152.1887-.18645.4402-.37291.7546-.55937l-.3144.12431.8804-.49721c1.0061-.55937 3.2699-1.8024 4.0245-.18646.566 1.30519-.3144 3.48049-.7546 4.72353-.8175 2.11318-1.8236 4.10198-2.8926 6.09088.1886-.4351.9432-2.1132.9432-2.1132-.4401-.0621-2.4524 4.5371-2.8297 4.6614h.0629c-.2516.1865-.4402.3729-.4402.4351-.1258.7458.7546.5593 1.2577.4972 2.138-.2486 4.9049-2.051 6.2883-3.6048 1.5092-1.6781 2.0752-4.2263 2.0752-6.4638v-.06215c-.0629-4.22631-3.0184-9.571358-8.112-9.2606-2.8298.124305-5.4709 2.85898-7.2945 4.72353-1.3205 1.49164-2.5782 3.10758-3.7101 4.72353-.5031.74579-1.0062 1.42949-1.4463 2.17529-.5031.6837-1.5092 1.7403-1.7608 2.5482 0 0 .3144-.3729.566-.6215-.6917 1.0566-1.3206 2.1753-1.9494 3.2319-.0629-.0621.3773-.9323.3773-.9323-.566-.1243-3.14419 4.9722-3.4586 5.5315-1.13191 2.051-2.13804 4.102-2.82976 6.2774-.7546 2.4239-1.76074 4.7235-2.51534 7.0852-.3773 1.1809-.7546 2.2997-1.00614 3.4805-.125763.5594-.25153 1.0566-.314414 1.616 0 .0621-.125767 1.0566 0 .9323-.125767.435-.125767.9944-.18865 1.4294 0 0 0-1.0565.062883-1.1808-.251534.3107-.062883 1.4916-.125767 1.6159-.314417 2.3618-.817485 4.8478 0 7.1474 1.069018 3.1698 3.710128 5.7802 6.602768 7.4583 1.5092.9322 3.52152 1.9888 5.40802 1.8645 2.2009-.1243 4.3389-1.9267 5.9739-3.2319 4.7791-3.9777 9.1181-9.5713 9.9356-15.9108.0629-.4351.3773-2.6104-.3773-2.6725-.6917-.0622-1.1948 1.4295-1.4463 1.8024-1.8865 3.0454-4.0875 5.9044-6.5399 8.5147-2.5154 2.7347-5.6595 5.6558-9.4954 6.526-.5031.1243-1.06905.1864-1.635.1864-.7546-.0621-1.44632-.2486-2.01227-.8079-.31442-.3108-.62884-1.3674-1.00614-1.5538 0-.3108-.06288-.6216-.12577-.808l-.18865-.3729c-.06288-1.8646 0-3.6048.31442-5.5315v-.0622c0-.0621.06289-.0621.06289-.1243zm11.06752-30.3922c-2.4525 3.9778-4.5276 8.0798-6.6028 12.3061-1.19478 2.4861-2.38957 5.0343-3.33282 7.7068 1.32055-4.1642 2.89264-8.1419 4.77912-12.1196 2.2638-4.7857 5.2822-9.447 8.8666-13.30045-1.4463 1.74025-2.704 3.72915-3.7101 5.40715zm6.477-6.83664c-.8804.87013-1.6979 1.86455-2.4525 2.79684 1.1948-1.5538 2.4525-3.10759 4.0246-4.35063-.566.49722-1.1319 1.11873-1.5721 1.55379zm6.4141.49722c.1257-.37291.2515-.80797.3144-1.30519-.1258.55937-.3773 1.11873-.3773 1.55379.0629-.1243.0629-.18645.0629-.2486z"/><path d="m60.3103 34.5693s.0628.0621 0-.0622c-.3145-.435-.7546-.1243-1.1948 0-1.8237.3729-3.7102.808-5.5967 1.1188.6918-2.2375 1.3835-4.5993 1.635-6.8989.1258-.8701.1887-1.8024 0-2.6725-.1258-.5594-.3144-1.1187-.6288-1.6159 0 0-.7546-.9323-.566-.4351l-.0629-.0622-.2515-.4972.2515.2486c.0629-.3729-1.0061-1.0565-1.0061-1.0565-1.5721-1.5538-3.7101-2.7347-5.8482-1.5538-1.3205.7458-2.3895 1.9888-3.2699 3.2319-.3144.435-.6288.9322-.8804 1.4294-.2515.4973-.6288 2.1132-1.0061 2.3618-.3144.2486-1.2577.3108-1.6979.5594-.6288.2486-1.1947.5593-1.6978.9323-1.1948.7458-2.138 1.8024-3.0184 2.8589-1.5092 1.9889-2.2638 4.2263-3.3328 6.2152-2.0123 3.7913.1886 8.7634 3.8987 10.5658 1.1948.5593 2.5783.808 3.8359.6836 1.3206-.1864 2.5783-.8701 3.5844-1.6159.9432-.6837 3.0184-1.9267 3.3957-2.9833 0-.0621-.1258 0-.3144.1865l1.8236-2.1132c.0629.0622-.4402.6837-.4402.6837.4402.1864 2.704-3.1076 2.9555-3.3562.4402-.7458.8804-1.5538 1.3835-2.2996.4402-.5594.3144-.4972.9432-.7458-.0629.0621.7546-.1865.8804-.1865.6917-.1243 8.0491-.6215 6.2255-2.9211zm-21.7577 12.5546h-.0629c-5.2193.7458.8175-10.1928.9432-10.8144l-.3773.5594c.9433-1.8646 1.8237-3.3562 2.2638-3.8534.6918 3.1076 4.0875 4.2885 6.8543 4.6614-1.8236 3.6048-5.2193 8.6391-9.6211 9.447zm12.388-17.216c-.4402 1.7403-.8175 4.0399-1.7607 5.5937-.3144.6215-.1258.435-.7546.5593-.3773.1243-1.1948 0-1.5721-.0621-.6917-.0622-1.5092-.1865-2.0123-.6215-.8803-.7459-.7546-1.9267-.6288-2.9833s.4402-2.051.8175-3.0455c.1886-.3729 1.3834-2.3617 1.1948-2.7346-.0629-.1865-.7546.9323-.8175.9944.3773-.6837.7546-1.0566 1.069-1.4916-.0629 0 0-.0622.0629-.1865v.0622l.0629-.1243s0-.0622.0628-.0622c.9433-1.243 3.27-4.0399 4.5277-2.1132.9432 1.616.0628 4.6614-.2516 6.2152zm-4.3389-4.0398.0628-.0622c0 .0622-.0628.0622-.0628.0622z"/><path d="m93.1118 34.88v-.0621c-.3772-2.051-3.207 1.3673-3.5843 1.6781-1.8236 1.9888-3.5215 4.1642-5.1565 6.3395-1.6349 2.2374-3.207 4.4749-4.9049 6.7123-.8174 1.1188-1.6349 2.1754-2.5782 3.1698-.3144.3729-1.069 1.4295-1.635 1.4295-2.2009 0-.503-8.7634-.2515-10.1308.3773-2.4239.566-5.6558 2.138-7.5825.3773-.4972 4.6534-5.9044 4.6534-5.9044-.1257-.0621-.6288.5594-.9432.9323l2.704-3.6048.1886-.2486.5031-.6837c.0629.0622 0 .1865-.0629.3108l.5659-.6215 1.635-2.1132c1.1948-1.6781 2.3267-3.4805 3.3957-5.2207 1.6979-2.859 4.0246-6.961 2.7669-10.44151-.9433-2.54822-4.4018-3.04543-6.7285-2.17531-1.6979.62152-3.1442 1.9267-4.339 3.29404-.6288.80798-1.2577 1.67808-1.8236 2.61038-.1887.2486-1.0061 2.2375-1.1948 2.4861h.0629c-.3773.6836-.7546 1.3673-1.0062 2.051.1258-.4973.4402-1.4917.6918-1.6781-.5031.3729-.9433 2.1753-1.0691 2.3617-2.3895 5.1586-4.4647 10.3794-5.9739 15.8487-1.6978-1.9267-4.4018-5.2207-7.3574-4.0398-2.4524.9944-4.276 3.5426-5.5337 5.7801-1.1319 1.9888-1.4463 4.0398-2.2638 5.9665-1.4463 3.2941-2.138 10.0686 2.7669 11.063 1.5092.3108 2.8926-.6215 4.0874-1.4295 2.138-1.5538 4.1503-3.3562 6.0368-5.2207-.3144 3.294-1.0061 8.2662 1.6979 10.8765 3.3328 3.3562 6.6656-1.1808 8.6779-3.6669 2.5782-3.2319 4.5905-6.8367 7.1687-9.9443 1.2577-1.4916 2.5153-2.9833 3.8359-4.3506 1.0061-.9944 3.0184-2.2375 2.8297-3.7913zm-23.1411 4.1021c-.0628.1864-.0629.3107-.0629.3107-.2515 1.4917-.2515 2.7968-1.3205 3.8534-.9433.9945-1.9494 1.9267-2.9555 2.859-.9433.8701-3.2071 3.4183-4.6534 3.294-1.7607-.1864-.4402-4.1641.4402-6.588-.9433 2.486-2.4525 6.5259-.3773 6.6502.5659.0621 1.5092-.4351 2.3267-1.1187-.7546.6836-2.0123 1.6159-2.7669 1.243-1.4463-.6215-.1887-4.1642.0629-5.1586.8175-2.859 2.0122-5.5936 3.3957-8.204.6917-1.3052 1.6978-3.4184 3.0184-3.5427l-.3144.1865c.0629-.0622.1257-.0622.1886-.0622.4402-.1243.8804.1865 1.1948.4351.8175.5594 1.3206 1.6159 1.8865 2.4239.6288.9944.1887 2.051-.0629 3.1698zm10.1243-14.3571c0-.0621 0-.1864.0629-.2486v-.0621c.0628-.1865.1257-.2486.1257-.2486v-.0622c1.4463-3.9777 3.0184-7.9554 5.2822-11.5602.566-.9323 2.201-3.79126 3.6473-2.98329.5659.31076.6917 1.11869.6917 1.67809.2515 3.7291-2.7669 8.1419-4.6534 11.1252-2.2009 3.4804-4.6534 6.8988-7.2316 10.0685l1.3835-1.4295 1.2576-1.5538-3.207 4.1021-.4402.5593-.2516.2486c.0629-.3729.3774-.7458.6918-1.1809-.1258.1244-.2516.2487-.3145.373.8175-2.6726 1.6979-5.3451 2.6411-8.0176-.0628.0621.0001-.0622.0629-.3108l.1887-.3107c0-.0622 0-.1243.0629-.1865zm-5.2822 5.0965c-.1258.3107-.5031 1.7402-.6918 1.9267 0 .0621-.0628.1243-.1257.1243.503-.6216.1886-1.4295.4402-2.1753.1257-.373.7546-1.0566.8803-1.5538 0 .4972-.3144 1.3673-.503 1.6781zm-9.9985 17.216c1.5721-1.3674 3.0813-2.7969 4.5276-4.2885-.1258.808-2.0752 2.1753-2.7669 2.7968-.8175.808-1.7607 1.616-2.704 2.3618h-.0629zm11.1304-22.8718c-.2516.7458-.566 1.4294-.9433 2.1131.3144-.9323.5031-1.8645.9433-2.7347.3773-.6836.8175-1.5538 1.1319-2.3617-.3144.9944-.8175 2.051-1.1319 2.9833zm4.0874.7458-.2516.6215c0-.0622.0629-.1865.0629-.3108zm-13.5828 8.204c-.2516.1865-.4402.4351-.5031.4351.1258 0 .3144-.2486.5031-.4351zm1.7607-.1243c.1258.0621.2515.1243.3773.2486zm12.4509-1.1187c0-.0622.0629-.1243.1258-.1865-.0629.1243-.1258.1865-.1258.1865zm.1258-.1865.0629-.1243c0 .0622-.0629.1243-.0629.1243z"/><path d="m112.579 34.6936c0 .0621 0 .0621-.063 0v-.0622c-1.006-1.6781-2.326.6216-2.892 1.4295-1.069 1.4295-2.075 2.7969-3.207 4.102-.944 1.1188-1.95 2.2375-2.704 3.4184 0 .1243-.126.435-.126.435-.252.373-.629.6837-.943 1.0566-.566.5594-1.132 1.1809-1.761 1.7403-.9434.8701-6.2256 5.7801-6.9173 2.6103-.3773-1.5538.1258-3.4804.4402-4.9721.1886-.808.3773-1.5538.503-2.3618.1258-.6215-.0628-1.243.2516-1.8645.1886-.3729.2515-.3108.6917-.4351l1.069-.3729c.6917-.2486 1.3834-.4972 2.0123-.8701.9432-.5594 1.8235-1.243 2.6415-1.9267 1.949-1.6159 4.024-3.5426 4.842-5.9666.44-1.3673.503-2.8589-.378-4.0398-.817-1.0566-2.201-1.616-3.458-1.8646-3.396-.6215-5.9742 1.3052-7.9236 3.8534-2.3896 2.9212-4.0874 6.526-4.9049 10.1929-.4402 1.8024-.6917 3.6048-1.0061 5.4693-.3145 1.8646-.5031 3.6049.503 5.3451-.0629-.6215-.1886-1.1809-.1886-1.7403 0-.3107.1257-.6215.1257-.8701 0-.1243-.1257-.4972-.1257-.6836 0-.5594.1257-.9945.2515-1.5538.0629-.5594 0-1.1188.0629-1.6781.0629-.6215.3144-1.1188.5659-1.6781.1887-.4972.2516-.9323.4402-1.4295.1887-.4351.3144-.9323.5031-1.4295.0629-.3108.3773-.6837.5659-1.0566-.1886.5594-.5659 1.0566-.6917 1.5538-.1886.7458-.0629 1.5538-.1257 2.2996-.1258.808-.3773 1.616-.5031 2.4861-.1258.808-.5031 1.5538-.6288 2.3618-.1258.7458-.3773 1.3051-.3145 2.051 0 .435.0629.8701.1258 1.243.0629.4972.3773.808.6917 1.1809 1.069 1.243 2.5154 2.2374 4.1503 2.6725 1.1319.3107 2.1381.2486 3.2071-.3108 1.5092-.8079 2.8296-2.051 3.9616-3.2319 1.069-1.1808 1.887-2.486 2.83-3.7291.88-1.1187 1.949-2.1753 2.83-3.294l3.395-4.3506 1.95-2.5482c.314-.3729.503-.6837.251-1.1809zm-15.5949.6837c.0629-.1243.0629-.1865.0629-.1865.9432-1.9888 1.6349-4.102 2.956-6.0287l1.131-1.4916c.252-.3108.692-.8702 1.132-.9945.944-.1864 1.195 1.4295 1.132 2.051l-.251 1.3052c-.063.3729.063.6215 0 .9323-.126.3729-.441.5594-.629.8701l-1.069 1.3674c-1.446 1.6781-3.2701 3.1075-5.2824 4.1641.3144-.6837.5031-1.3673.8175-1.9888z"/><path d="m146.634 16.4831c-.252-1.9888-3.333-3.4804-5.031-2.2996-1.384.9323-2.641 3.4805-3.647 4.9722l-6.163 9.1984c-.943 1.4295-1.886 2.859-2.893 4.2263-.251.4351-2.641 4.102-2.641 4.102.252.0622.818-.8079.944-.9322-1.698 2.3617-3.899 4.8478-5.974 7.2096-.692.8701-4.842 6.2773-6.352 5.5936-.503-.2486-.628-1.0566-.691-1.4916-.503-3.2941.754-6.5881 1.132-9.7578l-.252.6215.377-1.5538c0 .1864-.063.3729-.063.5594l.063-.373-.188 1.8646c.88-3.7291 2.138-7.3339 3.584-10.8144.377-.8701 4.025-9.8821 4.779-10.6901-.126.0622-.314.3108-.503.5594 1.195-2.1753 2.453-4.2263 3.899-6.2152-.315.4972-.88 1.4295-.88 1.4295.251.0621 2.766-3.3562 2.766-3.7291 0-.06216-.188.06215-.377.18645.629-.80797 1.069-1.24303.566-2.61037-.755-1.55379-2.955-3.4805-4.779-2.54822-.377.24861-.629.55936-.88.87012-1.321 1.6781-2.39 3.85341-3.27 5.71792-.315.7459-.566.8702-1.069 1.4295-.818.9323-1.258 2.1753-1.824 3.2319-1.132 2.2375-2.012 4.5992-3.018 6.8989-1.007 2.1131-1.824 4.2884-2.516 6.5259-.314.8701-.566 1.7402-.817 2.6103-.252.8702-1.132 2.4861-1.006 3.4184l.377-.808c-.315 1.0566-.566 2.1753-.818 3.2941-.062 0 .063-.808.063-.808-.251 0-.817 2.7347-.943 3.1076-.251 1.3052-.44 2.6103-.566 3.9777-.063 1.4295 0 2.7347.692 4.0398 1.32 2.2997 3.71 4.5371 6.288 5.3451.44.1243.943.2486 1.384.1864.44-.0621.88-.2486 1.194-.5593.252-.1243 1.258-1.1809.566-.6837l1.195-1.1187s-.566.6836-.754.8079c.314-.1243 1.006-1.0565 1.006-1.0565 2.075-2.2375 4.15-4.4128 6.036-6.8367 1.95-2.6104 3.711-5.4694 5.471-8.2662-.503 1.4917-.629 2.9833-1.069 4.4749-.251.808-.503 1.616-.691 2.4239-.126.3108-.252 1.8024-.126 1.6781 0 .1865 0 .3108-.063.4351 0-.0622 0-.1243-.063-.1865-.189.0622-.189 1.9268-.251 2.2375-.252.8701-.629 1.6781-.755 2.6725-.314 2.6104-.126 5.6558 1.509 7.8933 1.006 1.3673 2.515 2.1132 4.213 2.2375 1.824.0621 2.83-.9323 3.773-2.2997.629-.9322 1.195-1.7402 1.572-2.7968.315-.8701.944-2.5482.566-3.4183-.251-.5594-.377-.6215-.88-.3729-.692.2486-1.509 1.7402-1.949 2.2996-.629.6836-1.887 2.4239-2.956 2.5482-.629.0621-.503-.0622-.629-.808-.063-.435-.063-3.3562 0-3.4183-.188.2486-.251.4972-.314.7458.251-2.051 1.132-4.5371 1.761-6.7124.754-2.5482 1.32-5.0964 2.012-7.6446.754-2.6104 1.761-5.2208 2.83-7.7068.251-.5594 3.081-6.7124 3.521-7.2718-.44.3108-2.704 5.0343-3.459 6.5881 1.51-3.5427 3.27-6.961 5.471-10.1929.063 0-.628 1.0566-.503 1.0566.189.1243 1.698-2.1753 1.572-2.2375-.063 0-.125 0-.188.0622.314-.3108.691-.4972.629-1.1188zm-16.413 29.5221c-.566 2.5482-1.195 5.9666-.692 8.5148-.566-2.859-.377-6.0909.126-8.9499.377-2.3617 1.069-4.537 1.887-6.7123-.692 2.486-.755 4.6613-1.321 7.1474zm-10.502-23.6176c1.761-4.1642 4.276-7.9555 6.918-11.5603-2.642 3.7291-4.78 7.769-6.666 11.9332-1.446 3.294-2.767 6.4637-3.71 9.7578.188-.8701.377-1.7403.692-2.6104.754-2.5482 1.76-5.0343 2.766-7.5203zm-1.446 6.0287c1.132-3.0455 2.453-6.0909 3.962-9.0742-1.384 2.859-3.27 7.3339-3.962 9.0742zm19.934 4.102c-.188.5593-.44 1.1187-.692 1.6159l1.132-2.859z"/><path d="m178.926 34.6314c-.378.0622-3.648 1.0566-3.459 1.5538 0 .0622.126.1243.189.1243-1.069.4351-2.453.4972-3.522 1.1809-1.195.808-2.326 1.616-3.584 2.2996 1.132-1.9267 2.201-3.9777 2.893-6.0287.251-.7458 1.697-5.345.754-5.8422-.126-.0622-.189.4972-.251.8079.062-2.486-.755-6.2773-4.151-6.5259-2.075-.1243-4.024 2.4239-5.156 3.7913-2.578 3.2318-4.842 6.7123-7.106 10.0685-.629.9323-6.917 11.0009-6.917 11.0009s.44-.6215 1.006-1.4295c-.566.9323-1.132 1.9267-1.635 2.9211.252-.9323 2.641-8.3283 4.15-12.6789.126-.1865.189-.4351.252-.6215l.377-1.0566v.0621c.566-1.6781 1.132-3.3562 1.635-5.0964 0 .1864-.251 1.1187-.189 1.1187.378.0622.881-2.5482.629-2.5482l-.188.3108c.188-.9323.503-1.3674-.063-2.424-.44-.9322-1.195-1.8024-2.264-2.051-2.075-.5593-3.081 1.1188-2.956 2.7347 0 .2486.315.3729.315.6215 0 .3108-.315.8702-.377 1.1188-.441 1.3051-.755 2.5482-1.258 3.7912-.252.6837-2.578 7.1475-2.578 7.1475.125-.0622.188-.1865.251-.3108-.188.5594-.377 1.1187-.629 1.6781-.063-.0622.189-.4972.063-.4972-.629-.1243-2.201 5.0964-2.326 5.5936-.252 1.1809-.566 2.2996-1.007 3.4805-.188.6215-.44 1.2431-.628 1.9267 0 .0622-.315 1.5538 0 .9945-.063.1864-.126.3107-.126.435 0-.0621-.063-.1243-.063-.1864-.189.0621-.314 1.3673-.314 1.4295-.252.6836-.566 1.1808-.881 1.8023-.817 1.9889-1.257 4.1642-1.572 6.2774-.503 3.2319-2.012 8.0797-.377 11.063.566 1.0565 2.326 3.2319 3.71 1.9267.629-.6215.629-2.051.692-2.7969.377-2.051.691-4.1641 1.132-6.2151l.565-2.859c.063-.1243.566-2.4239.378-2.3618-.126.1243-.252.3108-.315.4972.315-.9944.755-1.9267 1.132-2.9832.503-1.4917.881-2.9212 1.635-4.2885.881-1.3673 1.635-2.859 2.453-4.2263.629-1.1187 1.194-2.5482 1.886-3.4805.189-.2486.566-.3729.881-.6215.628-.6837 1.069-1.616 1.572-2.3618.943-1.4916 1.76-2.9833 2.767-4.3506.44-.6215 5.47-7.5825 5.973-8.0176-.125.0622-.251.1243-.377.2486.503-.6215 1.069-1.1808 1.572-1.6781.063.0622-.377.4351-.314.4973.126.0621 3.018-2.1754 3.521-2.2375 1.384-.2486.881 2.3618.692 3.0454-.314 1.4295-1.132 2.7969-1.824 4.0399-.377.6837-.754 1.3052-1.069 1.9888-.063.0622-.566 1.2431-.377 1.1188l-.377.5593c.126-.1864.188-.435.188-.435-.251 0-.566 1.0566-.628 1.243-.378.6215-.881 1.1187-1.384 1.616-1.32 1.4916-2.515 3.0454-3.836 4.4749-1.006 1.0565-2.326 2.9211-3.836 3.294-1.069.2486-1.886-.3108-1.32 1.3673.377 1.1809 1.761 3.9156 3.27 3.9156 1.383 0 3.081-2.051 3.899-2.9211.943-1.0566 2.012-2.051 3.018-3.1698.251-.3729 3.144-3.7912 3.584-3.9777h-.063c.629-.3107 1.258-.0621 2.138-.6836.504-.3729.755-.7459 1.321-1.1188.44-.2486.629-.5593.817-.7458 0 0 0 .0622.063.0622.629-.6216 1.51-.4351 2.327-.9945 1.006-.6836 2.264-1.5538 3.144-2.3617 1.132-.9945 2.704-1.5538 3.207-3.2319-.251.0621-.566.0621-.754.1864zm-32.197 6.3395v.0622c-.063.8079-.628 1.7402-.943 2.486-.44 1.1809-.817 2.3618-1.195 3.5427-.817 2.486-1.76 4.9721-2.767 7.3339-.817 1.9888-1.572 4.1641-2.138 6.3394.692-3.0454 1.824-6.0287 2.704-8.8876.818-2.6104 2.076-5.1586 3.082-7.7069.125-.3107 1.32-2.7968 1.194-3.294.063.0622.063.1243.063.1243zm2.767 1.8646c-.188.7458-.377 1.4294-.629 2.051.189-.6216.378-1.3674.629-2.051zm8.615-10.1929-1.195 1.7402c.378-.5593.755-1.1808 1.195-1.7402zm10.25 7.5203c.063-.1864.378-.2486.566-.3729zm-15.029-7.2717c-.063.0621-.126.2486-.189.4972zm2.83 2.6104v-.0622c.063-.0621.063-.0621.063-.1243.063-.0621 0 .0622-.063.1865zm-3.27-1.5538c0 .1243-.063.1864-.126.2486zm-13.331 27.3467c0-.0621 0-.0621.063-.1243 0 .0622 0 .0622-.063.1243zm10.313-19.2049c0 .0622-.063.0622-.063.0622z"/><path d="m199.986 35.4394c-.189-.8701-.692-.9944-1.321-.7458-1.195.5594-2.389 1.8024-3.521 2.5482-2.578 1.616-5.157 2.9211-7.924 4.2885 0-.0622-.062-.1865-.125-.3729.063.3107 0 .435-.063.4972-.629-2.6725-1.258-5.3451-1.761-8.0797.252 1.1808.818 3.1697 1.258 4.8478-.566-2.6104-1.258-5.8423-1.195-5.8423-.126.0622-.126.1865-.126.3108-.126-.7458-.314-1.6781-.189-2.4861.063-.9323.566-1.7402.881-2.6103-.063.435-.189.9944-.189.9944.378.0621.629-2.2375.629-2.4861-.063-.3729-.88-1.5538-.88-1.243-1.698-1.5538-5.031 1.8645-5.534 3.3562-.377.9944-.377 2.051-.314 3.1076.062 1.0565.377 1.9888.691 2.9832.189.7459-.063 1.2431 0 2.051.126 1.2431.566 2.4861.818 3.667.251.9323 1.069 2.7968.88 3.6669-.126.8702-2.012 1.616-2.83 2.1132-1.069.6837-2.138 1.4916-3.207 2.2996-1.886 1.4295-3.898 3.2319-4.653 5.5315-.126.3108-.566 1.6781-.126 1.9267.063.0622.252-.9944.315-1.1187-.818 4.102 3.269 6.0908 7.105 6.153 4.339.1243 7.358-2.3618 8.867-6.2152.629-1.6781.817-3.4183.755-5.1586 0-1.1808-.126-2.2996-.315-3.4183-.126-.9944-.251-.9323.44-1.4916.503-.373 1.258-.6216 1.761-.8702 2.012-1.0565 3.836-2.2996 5.66-3.6048 1.32-.9322 4.464-2.5482 4.213-4.537zm-25.405 21.3802c-1.635-.4972 0-3.0454.566-3.8534.943-1.243 2.326-2.1753 3.584-3.0455l1.887-1.243c.188-.1243 1.383-1.0566 1.006-.9323l.754-.435-.44.3729c.126-.0622.315-.1243.44-.2486.063 1.4916.063 2.9833-.377 4.4749-.063.2486-1.258 2.7347-1.761 3.2319l.315-.2486c-.566.6837-1.195 1.243-1.95 1.6781 0-.0622.566-.4351.503-.4972l-1.76.6836c-.881.1865-1.887.3729-2.767.0622zm7.923 1.8024c-1.635.6837-3.207.9944-4.905 1.0566 3.082-.1865 6.289-1.6781 8.112-4.2263-.691 1.3673-1.572 2.4239-3.207 3.1697zm4.591-17.6511c-.063-.435-.189-1.0566-.378-1.7402.126.6836.252 1.3673.378 1.7402zm.817 6.4638c-.063-.0622-.063-.1865-.063-.3108 0 .1243.063.2486.063.3108z"/></g></svg>