<svg fill="none" height="18" viewBox="0 0 18 18" width="18" xmlns="http://www.w3.org/2000/svg" xmlns:xlink="http://www.w3.org/1999/xlink"><clipPath id="a"><path d="m0 0h18v18h-18z"/></clipPath><g clip-path="url(#a)" fill="#fff"><path d="m10.2471 10.0963c-.0268 0-.0528-.0094-.0736-.0289-.0416-.04-.0425-.10548-.0026-.1463.1594-.16155.3397-.2806.5364-.35372.2522-.09439.4429-.08503.9031-.06292.0953.00425.2019.00935.3241.01445.1256.0051.4428.01701.6734.01871.2253.0017.6101-.00595 1.3571-.09354.6248-.07312 1.0374-.12159 1.6128-.24573.0087-.0017.9117-.20152 1.8789-.72446.084-.04506.338-.18281.3302-.27634-.007-.08589-.2262-.18367-.384-.22193-.9879.05101-1.9646.15645-2.9032.31376-.0892.0153-2.2004.36308-3.3599.14115-.5989-.11479-.9776-.44641-.9932-.46087-.0165-.01445-.0303-.02721-.0373-.03401-.0416-.03996-.0433-.10458-.0026-.14625.0399-.04081.1066-.04251.1491-.00255.0069.00595.0182.01701.0329.02976.0035.0034.3536.30781.8918.4107 1.1214.21427 3.2629-.1386 3.2845-.14201.9507-.159 1.9413-.26529 2.9431-.31716.0096 0 .02 0 .0295.00255.0893.02041.5373.13605.5599.40985.0182.22618-.2678.38093-.4386.47362-.9065.48977-1.7826.7134-1.9352.74401-.5858.12839-1.0027.17686-1.6336.25084-.7591.08928-1.1535.09693-1.384.09438-.234-.0017-.5538-.0136-.6803-.01871-.1231-.0051-.2305-.0102-.3258-.01445-.4412-.02126-.6067-.02976-.8173.04932-.1672.06292-.3224.16495-.4602.30445-.0208.0212-.0485.0314-.0754.0314z"/><path d="m6.80917 8.97363c-.01734 0-.03467-.00425-.05114-.01275-.05113-.02806-.06933-.09014-.04159-.1403.06413-.11394.09013-.22278.07713-.32397-.0468-.36818-.59278-.60626-.79904-.69554l-.0182-.00766c-.02427-.0102-2.46298-1.09773-4.45104-3.94879-.17939-.25764-.20365-.47192-.21579-.5748l-.0026-.02296c-.03206-.25424.0936-.46086.16033-.57225.02687-.04507.08493-.06292.13346-.04167.14126.06122.27906.1335.40992.21513.23572.14625.45412.32396.64738.52804.37612.39624.79817.75251 1.20722 1.09773.26779.22618.54424.46002.80597.70235.80337.74571 1.91959 1.38769 3.31661 1.90892.0546.02041.08146.07993.06066.1335s-.08146.07993-.13606.05952c-1.42301-.53144-2.56177-1.18787-3.38594-1.95229-.25826-.23893-.53298-.47191-.79904-.69639-.41338-.34863-.83977-.70915-1.21935-1.10879-.07193-.07568-.27733-.29251-.61011-.49828-.09533-.05952-.195-.11309-.29639-.16156-.05287.09609-.10313.22023-.08493.36053l.0026.02636c.0104.09268.03033.26614.18026.48127 1.95513 2.80344 4.33924 3.86631 4.36264 3.87652l.0182.00765c.23572.10204.86143.37413.92296.8588.0182.1454-.0156.29676-.10226.44896-.01907.03401-.05547.05357-.09186.05357z"/><path d="m10.1232 7.83168c-.0061 0-.0121 0-.0182-.0017-.0572-.01021-.0953-.06378-.0858-.1199.2739-1.52458.5451-2.84.806-3.90967.3978-1.63258.4402-1.80349.4558-1.8358.0026-.0051.2591-.5476.3545-1.419153.0086-.075676.0121-.184515-.0503-.251688-.0286-.030611-.0702-.051869-.1248-.062923-.0035 0-.0069-.0017-.0104-.002551-.0745-.022958-.1447-.027209-.2088-.013604-.0763.017006-.2028.138599-.3753.362227-.8467 1.096892-1.19249 2.482022-1.52701 3.821252-.14213.568-.28859 1.15555-.47232 1.7176-.00606.01871-.013.04252-.0208.06973-.04679.16325-.13346.46851-.37525.74571-.07886.09013-.16726.17176-.26432.24404-.0468.03486-.11267.02551-.14733-.02041-.03553-.04592-.026-.11054.0208-.14455.08493-.06292.16293-.1352.23139-.21343.21146-.24233.28772-.50848.33279-.66663.00866-.02976.0156-.05612.02253-.07738.18113-.55439.32672-1.13855.46798-1.70315.33972-1.35963.69071-2.76603 1.56424-3.896925.2184-.2823.3623-.4098449.4975-.4396054.0996-.02210783.2054-.01615573.3128.0161557.0954.0204072.1734.0620719.2314.1249937.1335.143701.1118.346923.104.413246-.0996.908975-.3622 1.462515-.3735 1.485475-.0147.04592-.1751.7032-.4411 1.79243-.2609 1.06883-.5313 2.37999-.8042 3.90033-.0087.05017-.0538.08503-.104.08503z"/><path d="m.842359 13.9079c-.406452 0-.708907-.1429-.83283616-.4031-.01819932-.0382-.01126625-.0824.01819936-.113 1.0044278-1.0757 2.3251778-1.8001 3.6025978-2.4999 1.03996-.5697 2.11459-1.15898 3.01069-1.93446.04333-.03741.11006-.03401.14906.00936.03813.04251.03467.10799-.00953.14625-.91343.78993-1.99846 1.38425-3.04796 1.95995-1.24102.6802-2.52277 1.3826-3.498599 2.4038.199326.2831.721907.2279.884839.2032 1.38488-.2134 2.61376-.9761 3.80192-1.7133.50438-.313 1.02523-.6361 1.55388-.9158l.03206-.017c.13866-.0748.42725-.2296.8207-.2993.2158-.0383.43766-.0476.65951-.0281.05807.0051.10053.0553.09533.1123-.0052.0569-.05633.0986-.11439.0935-.20279-.0179-.40645-.0085-.60405.0255-.35965.0638-.61791.2024-.75743.2772l-.0338.0178c-.52258.2764-1.04083.5978-1.54175.9082-1.20635.7482-2.45344 1.522-3.88165 1.7422-.1092.017-.212328.0247-.310258.0247z"/><path d="m11.7612 18.0002c-.2842 0-.5962-.1862-.8718-.5306-.89266-1.1164-1.26791-2.516-1.63103-3.8706-.15079-.562-.30679-1.1436-.49745-1.6955-.00693-.0212-.01473-.0467-.02426-.0765-.04767-.1581-.12826-.4217-.34406-.6615-.07019-.0774-.14906-.148-.23485-.21-.0468-.0332-.0572-.0987-.0234-.1446.03466-.0459.10053-.0561.14732-.023.09793.0706.18893.1505.26866.2398.24699.2738.33885.5765.38825.7389.0078.0272.0156.0502.02167.0689.19326.5587.35012 1.1437.50178 1.7091.35792 1.3333.72707 2.7125 1.59287 3.7949.1023.1275.4463.517.7886.443-.0043-1.3996-.4549-2.7711-.8909-4.0984-.3683-1.1224-.7496-2.2831-.8692-3.4718-.0061-.057.0364-.1071.0945-.1131.058-.006.1092.0357.1152.0927.1179 1.1666.4949 2.3162.8606 3.4284.4489 1.3664.9126 2.7796.9004 4.2387 0 .0417-.026.0791-.0658.0953-.0728.0289-.1491.0433-.228.0433z"/><path d="m11.0426 1.43997c-.052 0-.1014-.0136-.143-.03996-.1473-.09439-.1317-.30016-.0858-.414949.0494-.123293.1699-.250838.3172-.238084.0702.005953.1161.041665.1343.05527.1214.092683.1855.300153.0876.460013-.0512.08333-.1404.1471-.2384.16921-.0242.0051-.0485.0085-.0719.0085zm-.0277-.21342c.0112.0068.0303.0085.052.0034.0416-.00936.084-.03912.1057-.07398.0416-.06802.0052-.158154-.0373-.191316-.0069-.005102-.0147-.011904-.0225-.011904-.0243-.003401-.0789.04847-.1023.10799-.0234.05867-.026.1471.0044.16666z"/><path d="m10.7775 2.32475c-.0433 0-.0866-.01191-.1221-.03572-.0564-.03741-.0919-.10203-.0962-.17686-.0052-.08078.026-.15815.0832-.20747.0537-.04592.1317-.06718.2079-.05612.0633.00935.1144.03911.1422.08418.0173.02636.0242.05952.0225.10714-.0026.06717-.0061.17941-.104.24403-.0399.02636-.0867.03997-.1326.03997zm-.0043-.20748c.0043 0 .0139 0 .0182-.0034.0069-.0068.0095-.03741.0104-.06037-.0087 0-.0173.0034-.0225.00765-.013.01191-.0148.04592-.007.05697z"/><path d="m10.319 3.86343c-.0451 0-.0901-.01106-.13-.03401-.1101-.06293-.1378-.19047-.1274-.2806.013-.11734.0936-.18537.1465-.22958.0381-.03232.0849-.06548.1482-.06888.0814-.0051.1629.04422.2019.12329.0312.06378.0312.12075.0268.17347-.0078.09098-.019.21512-.1334.28145-.0399.02295-.0867.03486-.1326.03486zm-.0243-.21258c.0156.00851.0373.0068.0494 0 .0217-.01275.0269-.07312.0312-.12244.0035-.03741 0-.05017-.006-.06462 0-.0017-.0018-.00255-.0026-.00425-.0035.00255-.0087.00595-.0165.01275-.0477.04081-.0754.06462-.0789.09948-.0017.01191-.0008.06463.0234.07823z"/><path d="m9.41936 6.62054c-.03553 0-.07019-.0068-.10313-.0238-.08839-.04507-.14299-.15306-.14819-.28996-.00433-.12414.03553-.28315.15946-.35712.1066-.06377.27906-.06463.36659.03571.03293.03741.04333.07823.05026.11734.0208.11649.04853.27635-.0702.40219-.06153.06548-.16032.11649-.25479.11649zm-.00606-.20747c.01473.0051.07106-.01275.10659-.05017.0442-.04676.03553-.11989.01734-.22618-.0026-.0153-.00434-.0204-.00521-.0204-.00953-.00681-.06499-.00851-.09532.00935-.0338.02041-.05807.08843-.05894.16156 0 .07907.026.11989.03467.12584z"/><path d="m9.44538 7.27074c-.01646 0-.03293-.0034-.04853-.0119l-.33105-.17006c-.052-.02636-.07194-.08844-.04507-.13945.02687-.05017.09013-.07058.14213-.04422l.33105.17006c.052.02636.07193.08843.04507.13945-.01907.03571-.05547.05527-.0936.05527z"/><path d="m9.15342 8.19671c-.0078 0-.0156 0-.0234-.00255-.16466-.03572-.30592-.14626-.37958-.29421-.02514-.05102-.00347-.11309.0494-.13775.05199-.02466.11526-.0034.14039.04847.04507.09098.13519.16071.23572.18281.0572.01276.09273.06803.07974.1233-.01127.04847-.0546.08078-.10313.08078z"/><path d="m7.94451 8.71602c-.03207 0-.06327-.0136-.08407-.04081-.03553-.04507-.026-.11054.01994-.14455.05806-.04337.10052-.10544.11959-.17431.0156-.05527.0728-.08758.12913-.07228.05633.01531.08926.07143.07366.1267-.0312.11224-.10053.21342-.19499.284-.01907.01445-.0416.02125-.06413.02125z"/><path d="m7.21205 7.94168c-.05027 0-.09447-.03486-.10313-.08503-.0104-.05612.02686-.10969.08493-.12074.06759-.01191.13346-.04847.17852-.09864.039-.04251.10487-.04677.14906-.0085.04334.03826.04767.10288.00867.14625-.07713.08588-.18373.14455-.29812.16496-.00607.00085-.013.0017-.01907.0017z"/><path d="m9.30162 9.22316c-.04766 0-.091-.03146-.10226-.07908-.01994-.08333-.01734-.17006.00953-.25084.01733-.05442.07713-.08418.1326-.06717.05546.01701.08579.07568.06846.1301-.01473.04421-.01647.09438-.0052.13944.01387.05527-.0208.11139-.078.125-.00866.0017-.01646.00255-.02513.00255z"/><path d="m10.6579 9.19729c-.0494 0-.0936-.03486-.1031-.08418l-.0494-.26019c-.0104-.05612.0269-.10969.0841-.12074.0572-.01021.1118.02635.123.08247l.0494.2602c.0104.05612-.0268.10968-.084.12074-.0061.00085-.013.0017-.0191.0017z"/><path d="m8.47827 9.60875s-.00694 0-.0104 0c-.1196-.01106-.22013-.10714-.23573-.22363-.0078-.05697.0338-.10799.091-.11564s.11006.03316.11786.08928c.0026.02041.02513.04251.0468.04422.05806.0051.10053.05611.09533.11223-.0052.05357-.05113.09354-.10486.09354z"/><path d="m8.34819 10.3238c-.00954 0-.01994-.0017-.02947-.0042-.13953-.04-.24179-.1718-.24352-.3146 0-.05699.04593-.10376.10399-.10461h.00087c.05806 0 .10486.04592.10573.10201 0 .0519.04073.1038.09186.1182.05547.0162.0884.0731.07193.1284-.013.0451-.05546.0748-.10139.0748z"/><path d="m4.27337 11.9339c-.03554 0-.0702-.0077-.10313-.0238-.0884-.0451-.14386-.1531-.1482-.2908-.00433-.1242.03553-.2832.15946-.3571.1066-.0638.27906-.0647.36659.0357.03293.0374.04333.0782.05026.1173.01994.1165.04854.2764-.07019.4022-.0624.0655-.16033.1165-.25479.1165zm-.00607-.2075c.01473.0051.07106-.0127.1066-.0501.04419-.0468.03553-.1199.01733-.2262-.0026-.0153-.00433-.0204-.0052-.0213-.00953-.0068-.065-.0085-.09533.0094-.0338.0204-.05893.0884-.05893.1615 0 .0783.026.1199.03466.1259z"/><path d="m16.9227 8.54507c-.045 0-.0901-.01106-.1299-.03401-.1101-.06293-.1378-.19047-.1274-.2806.013-.11734.0936-.18537.1464-.22958.0382-.03232.0849-.06548.1482-.06888.0823-.0051.1629.04422.2019.1233.0312.06377.0312.12074.0269.17261-.0078.09098-.0191.21512-.1335.2823-.0398.02295-.0866.03486-.1326.03486zm-.0242-.21258c.0156.00851.0372.00681.0494 0 .0216-.01275.0268-.07312.0312-.12244.0034-.03741 0-.05017-.0061-.06462 0-.0017-.0017-.00255-.0026-.0034-.0035.00255-.0087.00595-.0165.01275-.0476.04082-.0754.06462-.0788.09949-.0018.0119-.0009.06462.0234.07822z"/><path d="m16.2614 8.6851c-.0433 0-.0866-.01191-.1222-.03571-.0563-.03742-.0918-.10204-.0962-.17687-.0052-.08078.026-.15815.0824-.20747.0537-.04592.1317-.06717.208-.05612.0632.00935.1144.03911.1421.08418.0173.02806.0243.06037.0225.10714-.0026.06717-.006.17941-.104.24403-.0398.02636-.0866.03997-.1326.03997zm-.0043-.20662c.0043 0 .0139 0 .0182-.00341.0069-.0068.0095-.03741.0104-.06037-.0087 0-.0173.0034-.0225.00766-.013.01105-.0139.04591-.007.05697z"/><path d="m14.9487 9.06437c-.0451 0-.0902-.01105-.13-.03401-.111-.06292-.1378-.19047-.1274-.2806.013-.11734.0936-.18537.1464-.23043.0382-.03231.085-.06547.1482-.06888.0824-.00425.1638.04422.202.1233.0312.06377.0312.12074.0268.17261-.0078.09098-.019.21512-.1334.28145-.0399.02296-.0867.03486-.1326.03486zm-.0243-.21257c.0156.0085.0381.0068.0494 0 .0217-.01276.0269-.07313.0312-.12245.0035-.03741 0-.05016-.0061-.06462 0-.0017-.0017-.00255-.0026-.0034-.0034.00255-.0086.00595-.0164.01275-.0477.04082-.0746.06463-.0789.09949-.0017.0119-.0009.06462.0234.07823z"/><path d="m3.58614 12.0874c-.04333 0-.08666-.0119-.12219-.0357-.05634-.0374-.09187-.102-.0962-.1768-.0052-.0808.026-.1582.08233-.2075.05373-.0459.13173-.0672.20799-.0561.06327.0093.1144.0391.14213.0842.01733.0263.02427.0595.02253.1071-.0026.0672-.00606.1794-.10399.244-.03987.0264-.08667.04-.1326.04zm-.00433-.2066c.00433 0 .01386 0 .0182-.0034.00693-.0068.00953-.0374.01126-.0604-.00866 0-.01733.0034-.02253.0077-.013.0119-.01387.0459-.00693.057z"/><path d="m2.11365 13.0718c-.052 0-.1014-.0136-.143-.04-.14732-.0943-.13172-.3001-.08579-.4149.0494-.1233.16899-.2508.31719-.2381.06933.006.11612.0417.13346.0553.12133.0927.18546.3001.08839.46-.05113.0833-.14039.1471-.23832.1692-.02427.0051-.04853.0085-.07193.0085zm.06846-.4872c-.026 0-.07713.0493-.10053.108-.0234.0586-.026.1471.0052.1666.01127.0068.03034.0085.052.0034.0416-.0093.08406-.0391.10486-.0739.0416-.0681.00607-.159-.03726-.1914-.00607-.0051-.01473-.0119-.02253-.0119 0 0-.00087 0-.00174 0z"/><path d="m6.19202 7.4136c-.052 0-.1014-.0136-.143-.03996-.14732-.09438-.13173-.30016-.08579-.41495.04939-.12329.17072-.25083.31718-.23808.06934.00595.11613.04167.13347.05527.12133.09353.18546.30016.08839.46001-.05113.08333-.14039.1471-.23832.16921-.02427.0051-.04853.0085-.07193.0085zm-.02773-.21342c.01126.00765.03033.0085.05199.0034.0416-.00935.08407-.03911.10487-.07398.0416-.06802.0052-.15815-.03727-.19131-.00606-.0051-.01473-.01191-.02253-.01191-.02687-.0034-.07886.04762-.10226.10799-.0234.05867-.026.1471.0052.16666z"/><path d="m9.63709 11.5962c-.052 0-.1014-.0136-.143-.0399-.14733-.0944-.13173-.3002-.0858-.415.0494-.1233.16813-.2508.31719-.2381.06933.006.11613.0417.13347.0553.12132.0927.18545.3002.08839.46-.05113.0842-.14039.1471-.23919.1692-.02427.0051-.04853.0085-.07193.0085zm-.02774-.2134c.01127.0068.03034.0085.052.0034.0416-.0094.08407-.0391.10573-.074.0416-.068.0052-.1581-.03726-.1913-.00607-.0051-.0156-.0119-.02254-.0119-.02166-.0034-.07886.0476-.10226.108-.0234.0587-.026.1471.0052.1666z"/><path d="m11.0956 16.6851c-.052 0-.1014-.0136-.143-.04-.1473-.0944-.1317-.3001-.0858-.4149.0494-.1233.1699-.2509.3172-.2381.0693.0059.1161.0417.1334.0553.1214.0926.1855.3001.0884.46-.0511.0833-.1404.1471-.2383.1692-.0243.0051-.0485.0085-.0719.0085zm-.0277-.2134c.0112.0076.0303.0085.0519.0034.0416-.0094.0841-.0391.1049-.074.0416-.068.0061-.159-.0373-.1913-.006-.0051-.0147-.0119-.0225-.0119-.0234-.0043-.0789.0476-.1022.108-.0234.0586-.026.1471.0052.1666z"/><path d="m10.1821 14.1966c-.0356 0-.0702-.0077-.1032-.0238-.08837-.0451-.14383-.1531-.14817-.2908-.00433-.1242.03554-.2832.15947-.3571.1066-.0638.2791-.0647.3666.0357.0329.0374.0433.0782.0502.1173.0208.1165.0486.2764-.0702.4022-.0615.0655-.1603.1165-.2547.1165zm-.0061-.2075c.0147.0051.0711-.0127.1066-.0502.0442-.0467.0355-.1198.0173-.2261-.0026-.0153-.0043-.0204-.0052-.0213-.0095-.0068-.065-.0085-.0953.0094-.0338.0204-.0589.0884-.0589.1615 0 .0782.026.1199.0346.1259z"/><path d="m9.96187 13.2447c-.04333 0-.08666-.0119-.12219-.0357-.05633-.0375-.09187-.1021-.0962-.1769-.0052-.0808.026-.1582.08233-.2075.05373-.0459.13173-.0672.20799-.0561.0633.0094.1144.0391.1421.0842.0174.0263.0243.0595.0226.1071-.0026.0672-.0061.1794-.104.2441-.0399.0263-.0867.0399-.13263.0399zm-.00433-.2075c.00433 0 .01387 0 .0182-.0034.00693-.0068.00953-.0374.0104-.0604-.00867 0-.01733.0034-.02253.0077-.013.0119-.01387.0459-.00694.0569z"/><path d="m2.31832 4.08451c-.04333 0-.08666-.0119-.1222-.03571-.05633-.03741-.09186-.10204-.09619-.17686-.0052-.08078.026-.15816.08233-.20748.05373-.04591.13173-.06717.20799-.05612.06326.00936.11353.03912.14213.08418.01733.02721.02426.06038.02253.10714-.0026.06718-.00607.17942-.104.24404-.03986.02636-.08666.03996-.13259.03996zm-.00433-.20662c.0052 0 .01386 0 .01819-.0034.00694-.0068.00954-.03741.0104-.06037-.00866 0-.01733.0034-.02253.00765-.013.01105-.01386.04592-.00693.05697z"/><path d="m2.83118 4.90579c-.052 0-.1014-.0136-.143-.03996-.14732-.09439-.13172-.30016-.08579-.41495.04939-.12329.16812-.25084.31718-.23808.06934.00595.11613.04166.13347.05527.12133.09268.18546.30015.08839.46001-.05113.08333-.14039.1471-.23832.16921-.02427.0051-.04853.0085-.07193.0085zm.06846-.48722c-.026 0-.07799.04932-.10139.10799s-.026.1471.0052.16666c.01126.0068.03033.0085.05199.0034.0416-.00935.08407-.03912.10487-.07398.0416-.06802.00606-.159-.03727-.19132-.00607-.0051-.0156-.0119-.02253-.0119 0 0-.00087 0-.00173 0z"/><path d="m3.66663 5.71526c-.052 0-.1014-.01361-.143-.03997-.14733-.09438-.13173-.30015-.08579-.41494.04939-.1233.16986-.24999.31718-.23809.0702.00595.11613.04167.13433.05527.12133.09269.18546.30016.08753.46001-.05113.08333-.14039.14711-.23832.16921-.02427.00511-.04853.00851-.07193.00851zm-.02773-.21343c.01126.0068.03033.00851.05199.0034.0416-.00935.08407-.03911.10573-.07397.0416-.06803.0052-.15816-.03726-.19132-.00694-.0051-.01474-.0119-.02254-.0119-.02426-.00426-.07886.04846-.10226.10798-.0234.05867-.026.14711.00434.16666z"/></g></svg>